{"title":"Battle Los Angeles (2011).iso","uid":6327343,"size":4620288000,"categoryP":"video","categoryS":"movies_dvdr","magnet":"?xt=urn:btih:6abd65f723f0c5f8f8d504267d75ec0825958519&amp;dn=Battle+Los+Angeles+%282011%29.iso&amp;tr=udp%3A%2F%2Ftracker.openbittorrent.com%3A80&amp;tr=udp%3A%2F%2Fopen.demonii.com%3A1337&amp;tr=udp%3A%2F%2Ftracker.coppersurfer.tk%3A6969&amp;tr=udp%3A%2F%2Fexodus.desync.com%3A6969","seeders":0,"leechers":1,"uploader":"avd17","files":1,"time":1303154784,"description":"Format                           : MPEG Video\nFormat version                   : Version 2\nFormat profile                   : Main@Main\nFormat settings, Matrix          : Default\nDuration                         : 25mn 54s\nBit rate mode                    : Variable\nBit rate                         : 5 114 Kbps\nNominal bit rate                 : 9 608 Kbps\nWidth                            : 720 pixels\nHeight                           : 576 pixels\nDisplay aspect ratio             : 16:9\nFrame rate                       : 25.000 fps\nStandard                         : PAL\nColorimetry                      : 4:2:0\nScan type                        : Progressive\nBits/(Pixel*Frame)               : 0.493\nStream size                      : 948 MiB (93%)\n\nAudio\nID                               : 128 (0x80)\nFormat                           : AC-3\nFormat/Info                      : Audio Coding 3\nDuration                         : 25mn 54s\nBit rate mode                    : Constant\nBit rate                         : 192 Kbps\nChannel(s)                       : 2 channels\nChannel positions                : L R\nSampling rate                    : 48.0 KHz\nStream size                      : 35.6 MiB (3%)\n\nThe AvD Team","torrent":{"xt":"urn:btih:6abd65f723f0c5f8f8d504267d75ec0825958519","amp;dn":"Battle+Los+Angeles+%282011%29.iso","amp;tr":["udp%3A%2F%2Ftracker.openbittorrent.com%3A80","udp%3A%2F%2Fopen.demonii.com%3A1337","udp%3A%2F%2Ftracker.coppersurfer.tk%3A6969","udp%3A%2F%2Fexodus.desync.com%3A6969"],"infoHash":"6abd65f723f0c5f8f8d504267d75ec0825958519","infoHashBuffer":{"type":"Buffer","data":[106,189,101,247,35,240,197,248,248,213,4,38,125,117,236,8,37,149,133,25]},"announce":[],"urlList":[]}}